<svg width="31" height="31" viewBox="0 0 31 31" fill="none" xmlns="http://www.w3.org/2000/svg">
<path id="Telegram" d="M15.783 30.1899C24.0692 30.1899 30.783 23.4762 30.783 15.1899C30.783 6.90369 24.0692 0.189941 15.783 0.189941C7.49671 0.189941 0.782959 6.90369 0.782959 15.1899C0.782959 23.4762 7.49671 30.1899 15.783 30.1899ZM7.64671 14.8649L22.1092 9.28869C22.7805 9.04619 23.3667 9.45244 23.1492 10.4674L23.1505 10.4662L20.688 22.0674C20.5055 22.8899 20.0167 23.0899 19.333 22.7024L15.583 19.9387L13.7742 21.6812C13.5742 21.8812 13.4055 22.0499 13.018 22.0499L13.2842 18.2337L20.2342 11.9549C20.5367 11.6887 20.1667 11.5387 19.768 11.8037L11.1792 17.2112L7.47671 16.0562C6.67296 15.8012 6.65546 15.2524 7.64671 14.8649Z" fill="white"/>
</svg>
