<svg width="21" height="21" viewBox="0 0 21 21" fill="none" xmlns="http://www.w3.org/2000/svg">
<g id="Instagram">
<g id="Group">
<g id="Group_2">
<path id="Vector" d="M0.377319 6.26556L0.377319 13.7656C0.377319 17.2168 3.17607 20.0156 6.62732 20.0156L14.1273 20.0156C17.5786 20.0156 20.3773 17.2168 20.3773 13.7656L20.3773 6.26556C20.3773 2.81431 17.5786 0.0155632 14.1273 0.0155634L6.62732 0.0155637C3.17607 0.0155638 0.377319 2.81431 0.377319 6.26556ZM14.1273 1.89056C16.5398 1.89056 18.5023 3.85306 18.5023 6.26556L18.5023 13.7656C18.5023 16.1781 16.5398 18.1406 14.1273 18.1406L6.62732 18.1406C4.21482 18.1406 2.25232 16.1781 2.25232 13.7656L2.25232 6.26556C2.25232 3.85306 4.21482 1.89056 6.62732 1.89056L14.1273 1.89056Z" fill="white"/>
</g>
</g>
<g id="Group_3">
<g id="Group_4">
<path id="Vector_2" d="M5.37732 10.0156C5.37732 12.7768 7.61607 15.0156 10.3773 15.0156C13.1386 15.0156 15.3773 12.7768 15.3773 10.0156C15.3773 7.25431 13.1386 5.01556 10.3773 5.01556C7.61607 5.01556 5.37732 7.25431 5.37732 10.0156ZM13.5023 10.0156C13.5023 11.7381 12.0998 13.1406 10.3773 13.1406C8.65357 13.1406 7.25232 11.7381 7.25232 10.0156C7.25232 8.29306 8.65357 6.89056 10.3773 6.89056C12.0998 6.89056 13.5023 8.29306 13.5023 10.0156Z" fill="white"/>
</g>
</g>
<g id="Group_5">
<g id="Group_6">
<path id="Vector_3" d="M5.66855 4.64057C5.66855 4.27261 5.37026 3.97432 5.00231 3.97432C4.63435 3.97432 4.33606 4.27261 4.33606 4.64057C4.33606 5.00853 4.63435 5.30682 5.00231 5.30682C5.37027 5.30682 5.66855 5.00853 5.66855 4.64057Z" fill="white"/>
</g>
</g>
</g>
</svg>
