<svg width="26" height="27" viewBox="0 0 26 27" fill="none" xmlns="http://www.w3.org/2000/svg">
<g id="designer">
<g id="Graphic Designer-Computer-Monitor-Graphic Tablet-Designer">
<path id="Vector" d="M20.2823 20.1669L19.6323 20.6049L21.1627 22.9239H3.87251L5.69556 20.1617H15.6202V19.3726H5.48657C5.42228 19.3725 5.35898 19.3886 5.30228 19.4192C5.24559 19.4498 5.19726 19.4941 5.16157 19.5482L2.81782 23.0995C2.77514 23.1644 2.75232 23.2405 2.7522 23.3185V24.5022C2.7522 24.7115 2.83451 24.9123 2.98102 25.0603C3.12753 25.2083 3.32625 25.2914 3.53345 25.2914H21.5022C21.7094 25.2914 21.9081 25.2083 22.0546 25.0603C22.2011 24.9123 22.2834 24.7115 22.2834 24.5022V23.3185C22.2833 23.2405 22.2605 23.1644 22.2178 23.0995L20.2823 20.1669ZM3.53345 24.5022V23.7131H21.5022V24.5022H3.53345Z" fill="white"/>
<path id="Vector_2" d="M20.3303 1.61597H4.70532C4.39481 1.6169 4.09727 1.74192 3.87771 1.96372C3.65814 2.18552 3.53437 2.48607 3.53345 2.79974V13.0591C3.53437 13.3728 3.65814 13.6733 3.87771 13.8951C4.09727 14.1169 4.39481 14.2419 4.70532 14.2429H10.1741V15.8212H8.61157C8.50797 15.8212 8.40861 15.8628 8.33536 15.9368C8.2621 16.0108 8.22095 16.1112 8.22095 16.2158V17.7942C8.22095 17.8988 8.2621 17.9992 8.33536 18.0732C8.40861 18.1472 8.50797 18.1888 8.61157 18.1888H16.4241C16.5277 18.1888 16.627 18.1472 16.7003 18.0732C16.7735 17.9992 16.8147 17.8988 16.8147 17.7942V16.2158C16.8147 16.1112 16.7735 16.0108 16.7003 15.9368C16.627 15.8628 16.5277 15.8212 16.4241 15.8212H14.8616V14.2429H20.3303C20.6408 14.2419 20.9384 14.1169 21.1579 13.8951C21.3775 13.6733 21.5013 13.3728 21.5022 13.0591V2.79974C21.5013 2.48607 21.3775 2.18552 21.1579 1.96372C20.9384 1.74192 20.6408 1.6169 20.3303 1.61597ZM16.0334 16.6104V17.3996H9.0022V16.6104H16.0334ZM10.9553 15.8212V14.2429H14.0803V15.8212H10.9553ZM20.7209 13.0591C20.7209 13.1637 20.6798 13.2641 20.6065 13.3381C20.5333 13.4121 20.4339 13.4537 20.3303 13.4537H4.70532C4.60172 13.4537 4.50237 13.4121 4.42911 13.3381C4.35585 13.2641 4.3147 13.1637 4.3147 13.0591V11.8753H20.7209V13.0591ZM20.7209 11.0861H4.3147V2.79974C4.3147 2.69509 4.35585 2.59472 4.42911 2.52072C4.50237 2.44672 4.60172 2.40515 4.70532 2.40515H20.3303C20.4339 2.40515 20.5333 2.44672 20.6065 2.52072C20.6798 2.59472 20.7209 2.69509 20.7209 2.79974V11.0861Z" fill="white"/>
<path id="Vector_3" d="M18.3772 12.2699H19.1584V13.0591H18.3772V12.2699Z" fill="white"/>
<path id="Vector_4" d="M9.0022 10.297H10.5647C10.6683 10.297 10.7677 10.2554 10.8409 10.1814C10.9142 10.1074 10.9553 10.007 10.9553 9.90237V9.50778H14.0803V9.90237C14.0803 10.007 14.1215 10.1074 14.1947 10.1814C14.268 10.2554 14.3673 10.297 14.4709 10.297H16.0334C16.137 10.297 16.2364 10.2554 16.3097 10.1814C16.3829 10.1074 16.4241 10.007 16.4241 9.90237V8.32401C16.4241 8.21936 16.3829 8.11899 16.3097 8.04499C16.2364 7.97099 16.137 7.92942 16.0334 7.92942H15.6428V5.56188H16.0334C16.137 5.56188 16.2364 5.5203 16.3097 5.4463C16.3829 5.3723 16.4241 5.27194 16.4241 5.16729V3.58893C16.4241 3.48427 16.3829 3.38391 16.3097 3.30991C16.2364 3.23591 16.137 3.19434 16.0334 3.19434H14.4709C14.3673 3.19434 14.268 3.23591 14.1947 3.30991C14.1215 3.38391 14.0803 3.48427 14.0803 3.58893V3.98352H10.9553V3.58893C10.9553 3.48427 10.9142 3.38391 10.8409 3.30991C10.7677 3.23591 10.6683 3.19434 10.5647 3.19434H9.0022C8.8986 3.19434 8.79924 3.23591 8.72598 3.30991C8.65273 3.38391 8.61157 3.48427 8.61157 3.58893V5.16729C8.61157 5.27194 8.65273 5.3723 8.72598 5.4463C8.79924 5.5203 8.8986 5.56188 9.0022 5.56188H9.39282V7.92942H9.0022C8.8986 7.92942 8.79924 7.97099 8.72598 8.04499C8.65273 8.11899 8.61157 8.21936 8.61157 8.32401V9.90237C8.61157 10.007 8.65273 10.1074 8.72598 10.1814C8.79924 10.2554 8.8986 10.297 9.0022 10.297ZM15.6428 9.50778H14.8616V8.7186H15.6428V9.50778ZM14.8616 3.98352H15.6428V4.7727H14.8616V3.98352ZM9.39282 3.98352H10.1741V4.7727H9.39282V3.98352ZM10.1741 5.56188H10.5647C10.6683 5.56188 10.7677 5.5203 10.8409 5.4463C10.9142 5.3723 10.9553 5.27194 10.9553 5.16729V4.7727H14.0803V5.16729C14.0803 5.27194 14.1215 5.3723 14.1947 5.4463C14.268 5.5203 14.3673 5.56188 14.4709 5.56188H14.8616V7.92942H14.4709C14.3673 7.92942 14.268 7.97099 14.1947 8.04499C14.1215 8.11899 14.0803 8.21936 14.0803 8.32401V8.7186H10.9553V8.32401C10.9553 8.21936 10.9142 8.11899 10.8409 8.04499C10.7677 7.97099 10.6683 7.92942 10.5647 7.92942H10.1741V5.56188ZM9.39282 8.7186H10.1741V9.50778H9.39282V8.7186Z" fill="white"/>
<path id="Vector_5" d="M9.0022 21.3455H14.4709V22.1346H9.0022V21.3455Z" fill="white"/>
<path id="Vector_6" d="M23.4045 15.3636L22.2991 14.2469C22.2627 14.2101 22.2194 14.1811 22.1718 14.1614C22.1242 14.1418 22.0732 14.1319 22.0217 14.1325C21.9709 14.132 21.9204 14.1418 21.8735 14.1615C21.8265 14.1812 21.7839 14.2102 21.7483 14.2469L16.4983 19.5502C16.4555 19.5933 16.4234 19.646 16.4045 19.7041L16.1272 20.5406C16.1049 20.6099 16.1018 20.6841 16.1184 20.7551C16.1349 20.8261 16.1704 20.8911 16.2209 20.9431L15.6702 21.5034L16.2209 22.0598L16.7756 21.5034C16.8115 21.5398 16.8541 21.5686 16.901 21.5883C16.9479 21.6079 16.9983 21.618 17.0491 21.6178C17.0915 21.6174 17.1336 21.6107 17.1741 21.5981L18.0022 21.318C18.0597 21.2989 18.1118 21.2665 18.1545 21.2233L23.4045 15.92C23.4773 15.846 23.5181 15.746 23.5181 15.6418C23.5181 15.5375 23.4773 15.4375 23.4045 15.3636ZM17.6702 20.5998L17.1584 20.7695L16.9436 20.5564L17.1155 20.0395L20.9163 16.2001L21.4709 16.7565L17.6702 20.5998ZM22.0217 16.2001L21.4709 15.6437L22.0217 15.0834L22.5764 15.6437L22.0217 16.2001Z" fill="white"/>
</g>
</g>
</svg>
