<svg width="20" height="23" viewBox="0 0 20 23" fill="none" xmlns="http://www.w3.org/2000/svg">
<g id="University">
<path id="Vector" d="M17.1173 15.1182L15.6501 14.7328L12.4579 12.8675V12.4401C13.3821 11.8164 14.0168 10.8632 14.1347 9.77043C14.5983 9.70368 14.9534 9.34334 14.9534 8.91019V7.7349C14.9534 7.73036 14.9529 7.7259 14.9526 7.72136V6.23256C15.1373 6.11427 15.2545 5.92158 15.2545 5.70544V4.34298L17.4574 4.00727C17.8195 3.9521 18.0799 3.69485 18.1054 3.3671C18.1309 3.03935 17.913 2.75227 17.5631 2.65271L10.1365 0.539426C9.98147 0.495307 9.8178 0.495351 9.66292 0.539383L2.23621 2.65271C1.88626 2.75227 1.66829 3.03935 1.69382 3.36706C1.71003 3.57529 1.82126 3.75483 1.99294 3.87242V5.65411H1.97478C1.55657 5.65411 1.21633 5.9585 1.21633 6.33264V7.21704L0.726734 9.78786C0.642114 10.2325 1.02493 10.6395 1.5303 10.6395H3.18796C3.69221 10.6395 4.07634 10.2335 3.99153 9.78782L3.50193 7.21704V6.33264C3.50193 5.9585 3.16169 5.65411 2.74348 5.65411H2.72537V4.06568L4.54636 4.34315V5.70544C4.54636 5.92067 4.66301 6.11305 4.8468 6.23151L4.84749 7.73503V8.91019C4.84749 9.34339 5.20261 9.70368 5.66614 9.77043C5.78406 10.8625 6.41804 11.8154 7.34138 12.4391V12.8685L4.14988 14.7335L2.68381 15.1184C1.11501 15.5304 0.00729975 16.8189 0.00729975 18.3167V19.2931C0.00729975 19.474 0.171216 19.6207 0.373511 19.6207C0.575806 19.6207 0.739722 19.474 0.739722 19.2931V18.3167C0.739722 17.1362 1.62395 16.0795 2.89011 15.7471L4.25613 15.3884L9.71345 18.2895C9.82424 18.3484 9.97083 18.3515 10.0876 18.2895L15.5452 15.3882L16.9111 15.7469C18.1771 16.0795 19.0613 17.136 19.0613 18.3164V21.4807C19.0613 21.8866 18.6922 22.2168 18.2386 22.2168H16.6244V20.8046C16.6244 20.6237 16.4605 20.477 16.2582 20.477C16.056 20.477 15.892 20.6236 15.892 20.8046V22.2168H3.90725V20.8046C3.90725 20.6237 3.74334 20.477 3.54104 20.477C3.33875 20.477 3.17483 20.6236 3.17483 20.8046V22.2168H1.56238C1.10872 22.2168 0.739624 21.8866 0.739624 21.4807V20.8245C0.739624 20.6436 0.575708 20.4969 0.373413 20.4969C0.171118 20.4969 0.00720215 20.6436 0.00720215 20.8245V21.4807C0.00720215 22.2479 0.70481 22.872 1.56233 22.872H18.2385C19.096 22.872 19.7936 22.2479 19.7936 21.4807V18.3164C19.7936 16.8539 18.7237 15.5401 17.1173 15.1182ZM3.18792 9.98426H1.5303C1.47908 9.98426 1.44001 9.94333 1.44871 9.89785L1.89158 7.57236H2.82664L3.26951 9.89781C3.27815 9.9432 3.23938 9.98426 3.18792 9.98426ZM2.76951 6.33264V6.91716H1.94866V6.33264C1.94866 6.31975 1.96033 6.30931 1.97473 6.30931H2.74338C2.75784 6.30927 2.76951 6.31975 2.76951 6.33264ZM8.5907 16.8075L8.73645 17.0079L4.99773 15.0205L7.37083 13.6338C7.47844 14.7634 7.89465 15.8505 8.5907 16.8075ZM8.58816 15.3933C9.45012 15.5028 10.3502 15.5029 11.2127 15.3933C11.046 15.7601 10.8407 16.1141 10.5963 16.4502L9.90042 17.4071L9.20457 16.4502C8.96018 16.1141 8.75481 15.7601 8.58816 15.3933ZM11.2101 16.8075C11.9062 15.8505 12.3224 14.7634 12.43 13.6338L14.8031 15.0204L11.0644 17.0079L11.2101 16.8075ZM13.3523 6.35457H14.2202V7.40724H13.7894C13.5484 7.40724 13.3522 7.23181 13.3522 7.01614V6.35457H13.3523ZM2.45818 3.27711L9.88499 1.16374C9.89451 1.16103 9.90476 1.16099 9.91443 1.16378L17.3412 3.27711C17.3565 3.28148 17.3776 3.28742 17.3749 3.32154C17.3722 3.35561 17.3505 3.35889 17.3345 3.36134L14.8791 3.73548L13.9572 3.63348C13.7566 3.61124 13.5737 3.73889 13.5489 3.91842C13.5241 4.098 13.6667 4.26155 13.8674 4.28374L14.5221 4.35621V5.69937L5.27874 5.69906V4.35617L9.06814 3.93668C9.62009 3.87566 10.1797 3.87566 10.7312 3.93668L12.1655 4.09538C12.3661 4.11762 12.549 3.99002 12.5739 3.81048C12.5987 3.6309 12.4561 3.46735 12.2554 3.44512L10.8212 3.28642C10.21 3.21875 9.58987 3.21875 8.97825 3.28642L4.92092 3.73557L2.46472 3.36134C2.4488 3.35889 2.42708 3.35561 2.42439 3.32154C2.42175 3.28742 2.4428 3.28144 2.45818 3.27711ZM5.57966 7.40724L5.57918 6.35457H6.44856V7.01619C6.44856 7.23181 6.25247 7.40728 6.01135 7.40728H5.57966V7.40724ZM6.38567 9.60203C6.36682 9.33526 6.11897 9.12629 5.82146 9.12629C5.68821 9.12629 5.57981 9.02931 5.57981 8.91014V8.06248H6.01135C6.65623 8.06248 7.18093 7.59311 7.18093 7.01619V6.35457H12.6199V7.01619C12.6199 7.59311 13.1446 8.06248 13.7894 8.06248H14.221V8.91014C14.221 9.02931 14.1126 9.12629 13.9793 9.12629C13.6818 9.12629 13.434 9.33526 13.4151 9.60208C13.2985 11.2563 11.7546 12.5522 9.90037 12.5522C8.04612 12.5522 6.50232 11.2563 6.38567 9.60203ZM9.90042 13.2074C10.5517 13.2074 11.1708 13.0741 11.7255 12.8372V13.0449C11.7255 13.605 11.641 14.1575 11.4784 14.6905C10.4832 14.8602 9.35803 14.8671 8.32244 14.6905C8.15979 14.1576 8.07532 13.605 8.07532 13.0449C8.07532 13.0379 8.07424 13.0311 8.07376 13.0243C8.07366 13.0229 8.0738 13.0216 8.07371 13.0202V12.8366C8.62883 13.0739 9.24846 13.2074 9.90042 13.2074Z" fill="white"/>
</g>
</svg>
