<svg width="31" height="31" viewBox="0 0 31 31" fill="none" xmlns="http://www.w3.org/2000/svg">
<path d="M0.782958 9.56494L0.782959 20.8149C0.782959 25.9918 4.98108 30.1899 10.158 30.1899L21.408 30.1899C26.5848 30.1899 30.783 25.9918 30.783 20.8149L30.783 9.56494C30.783 4.38807 26.5848 0.189942 21.408 0.189942L10.158 0.189943C4.98108 0.189943 0.782958 4.38807 0.782958 9.56494ZM21.408 3.00244C25.0267 3.00244 27.9705 5.94619 27.9705 9.56494L27.9705 20.8149C27.9705 24.4337 25.0267 27.3774 21.408 27.3774L10.158 27.3774C6.53921 27.3774 3.59546 24.4337 3.59546 20.8149L3.59546 9.56494C3.59546 5.94619 6.53921 3.00244 10.158 3.00244L21.408 3.00244Z" fill="white"/>
<path d="M8.28296 15.1899C8.28296 19.3318 11.6411 22.6899 15.783 22.6899C19.9248 22.6899 23.283 19.3318 23.283 15.1899C23.283 11.0481 19.9248 7.68994 15.783 7.68994C11.6411 7.68994 8.28296 11.0481 8.28296 15.1899ZM20.4705 15.1899C20.4705 17.7737 18.3667 19.8774 15.783 19.8774C13.1973 19.8774 11.0955 17.7737 11.0955 15.1899C11.0955 12.6062 13.1973 10.5024 15.783 10.5024C18.3667 10.5024 20.4705 12.6062 20.4705 15.1899Z" fill="white"/>
<path d="M8.71981 7.12709C8.71981 6.57515 8.27238 6.12772 7.72044 6.12772C7.1685 6.12772 6.72107 6.57515 6.72107 7.12709C6.72107 7.67903 7.1685 8.12646 7.72044 8.12646C8.27238 8.12646 8.71981 7.67903 8.71981 7.12709Z" fill="white"/>
</svg>
