<svg width="52" height="51" viewBox="0 0 52 51" fill="none" xmlns="http://www.w3.org/2000/svg">
<g id="spinner 2" clip-path="url(#clip0_116576_30)">
<path id="Vector" d="M25.783 14.9901C24.1412 14.9901 22.8103 13.6852 22.8103 12.0757V3.33257C22.8103 1.723 24.1412 0.418213 25.783 0.418213C27.4247 0.418213 28.7557 1.723 28.7557 3.33257V12.0757C28.7557 13.6853 27.4246 14.9901 25.783 14.9901Z" fill="white"/>
<path id="Vector_2" d="M25.783 48.87C24.7569 48.87 23.925 48.0545 23.925 47.0485V38.3054C23.925 37.2994 24.7569 36.4839 25.783 36.4839C26.8091 36.4839 27.6409 37.2995 27.6409 38.3054V47.0485C27.6409 48.0545 26.8091 48.87 25.783 48.87Z" fill="white"/>
<path id="Vector_3" d="M19.097 16.5655C18.1338 16.5655 17.1971 16.0756 16.6809 15.1989L12.2218 7.62713C11.4523 6.32029 11.909 4.6493 13.2419 3.89481C14.5748 3.14041 16.2793 3.58797 17.0489 4.8949L21.5079 12.4668C22.2775 13.7736 21.8208 15.4446 20.4878 16.1991C20.049 16.4473 19.5698 16.5655 19.097 16.5655Z" fill="white"/>
<path id="Vector_4" d="M36.932 45.7596C36.3542 45.7596 35.7922 45.4656 35.4823 44.9397L31.0233 37.3679C30.5616 36.5839 30.8355 35.5812 31.6354 35.1284C32.4351 34.6761 33.4578 34.9444 33.9197 35.7286L38.3788 43.3003C38.8405 44.0844 38.5664 45.087 37.7666 45.5398C37.5033 45.6886 37.2157 45.7596 36.932 45.7596Z" fill="white"/>
<path id="Vector_5" d="M14.1956 21.1836C13.7543 21.1836 13.3072 21.0734 12.8975 20.8415L5.17417 16.4699C3.93015 15.7657 3.50382 14.2061 4.22211 12.9864C4.94039 11.7667 6.53125 11.3488 7.77527 12.053L15.4985 16.4246C16.7426 17.1288 17.1688 18.6884 16.4505 19.908C15.969 20.7262 15.0946 21.1836 14.1956 21.1836Z" fill="white"/>
<path id="Vector_6" d="M45.0897 37.5769C44.8374 37.5769 44.5818 37.5139 44.3479 37.3814L36.6247 33.0098C35.9138 32.6074 35.6703 31.7161 36.0807 31.0192C36.4911 30.3222 37.4003 30.0833 38.111 30.4858L45.8342 34.8574C46.5451 35.2598 46.7887 36.151 46.3783 36.848C46.1029 37.3155 45.6032 37.5769 45.0897 37.5769Z" fill="white"/>
<path id="Vector_7" d="M12.4059 27.5584H3.48788C2.15391 27.5584 1.07256 26.4983 1.07256 25.1905C1.07256 23.8827 2.15391 22.8225 3.48788 22.8225H12.4059C13.7399 22.8225 14.8212 23.8827 14.8212 25.1905C14.8212 26.4983 13.7399 27.5584 12.4059 27.5584Z" fill="white"/>
<path id="Vector_8" d="M48.078 26.6476H39.16C38.3391 26.6475 37.6736 25.9951 37.6736 25.1904C37.6736 24.3857 38.3392 23.7332 39.16 23.7332H48.078C48.8989 23.7332 49.5644 24.3856 49.5644 25.1904C49.5644 25.9952 48.8988 26.6476 48.078 26.6476Z" fill="white"/>
<path id="Vector_9" d="M6.47697 38.3056C5.70639 38.3056 4.95703 37.9136 4.54405 37.2123C3.92837 36.1669 4.29373 34.83 5.36005 34.2266L13.0834 29.8549C14.1497 29.251 15.5133 29.6094 16.1289 30.6549C16.7446 31.7004 16.3792 33.0372 15.3129 33.6407L7.58961 38.0123C7.23848 38.211 6.85509 38.3056 6.47697 38.3056Z" fill="white"/>
<path id="Vector_10" d="M37.3691 20.0905C36.8554 20.0905 36.3558 19.8292 36.0805 19.3617C35.6701 18.6647 35.9136 17.7735 36.6245 17.3711L44.3478 12.9996C45.0586 12.5974 45.9677 12.8359 46.3782 13.5329C46.7886 14.2299 46.545 15.1211 45.8341 15.5235L38.1109 19.895C37.8768 20.0275 37.6213 20.0905 37.3691 20.0905Z" fill="white"/>
<path id="Vector_11" d="M14.6335 46.1237C14.2867 46.1237 13.9354 46.0371 13.6135 45.855C12.636 45.3016 12.3011 44.0762 12.8654 43.1179L17.3244 35.5462C17.8887 34.5878 19.1386 34.2595 20.1162 34.8127C21.0936 35.366 21.4285 36.5915 20.8642 37.5497L16.4052 45.1216C16.0268 45.7644 15.3398 46.1237 14.6335 46.1237Z" fill="white"/>
<path id="Vector_12" d="M32.47 15.29C32.2179 15.29 31.9622 15.227 31.7283 15.0946C31.0173 14.6922 30.7738 13.801 31.1842 13.1041L35.6434 5.53232C36.0538 4.83535 36.9628 4.59648 37.6737 4.99902C38.3846 5.40156 38.6282 6.29267 38.2178 6.98955L33.7587 14.5613C33.4833 15.0286 32.9837 15.29 32.47 15.29Z" fill="white"/>
</g>
<defs>
<clipPath id="clip0_116576_30">
<rect width="51" height="50" fill="white" transform="translate(0.282959 0.19043)"/>
</clipPath>
</defs>
</svg>
