<svg width="21" height="21" viewBox="0 0 21 21" fill="none" xmlns="http://www.w3.org/2000/svg">
<path id="Facebook" d="M0.377319 2.94525L0.377319 17.0859C0.377319 18.7012 1.69171 20.0156 3.30701 20.0156L17.4476 20.0156C19.0629 20.0156 20.3773 18.7012 20.3773 17.0859L20.3773 11.1874L13.307 11.1874L13.307 13.5312L9.79138 13.5312L9.79138 11.1874L7.40857 11.1874C5.46994 11.1874 3.89294 9.61044 3.89294 7.67181L3.89294 4.11713L7.40857 4.11713L7.40857 7.67181L9.79138 7.67181L9.79138 4.11713L13.307 4.70306L13.307 7.67181L20.3773 7.67181L20.3773 2.94525C20.3773 1.32995 19.0629 0.0155629 17.4476 0.015563L3.30701 0.0155636C1.69171 0.0155637 0.377319 1.32996 0.377319 2.94525Z" fill="white"/>
</svg>
