<svg width="20" height="21" viewBox="0 0 20 21" fill="none" xmlns="http://www.w3.org/2000/svg">
<path id="Github" d="M0.377319 10.0151C0.377319 15.5401 4.73899 20.0151 10.1184 20.0151C14.4231 20.0151 18.0735 17.1501 19.3605 13.1776C19.4522 12.6776 19.1507 12.4942 18.8921 12.4942C18.6608 12.4942 18.0479 12.5026 17.2359 12.5067C17.8232 15.2884 15.929 15.8751 15.929 15.8751C14.8047 16.3301 14.504 16.9876 14.504 16.9876C13.9002 17.8934 13.9126 16.9176 13.9126 16.9176C13.9803 15.9134 14.9162 15.3859 14.9162 15.3859C16.4056 14.4942 15.9753 13.0451 15.7266 12.4734C15.0963 12.3834 14.6676 12.1259 14.4239 11.8401C14.1802 14.0609 13.3426 16.3951 9.61036 16.3951C8.5472 16.3951 7.67817 16.0076 6.99665 15.3659C6.75048 15.4784 5.76002 15.8159 4.41848 15.2784C4.41848 15.2784 4.15744 14.4409 5.4172 12.5284C5.20077 11.7284 5.09338 10.8784 5.08842 10.0284C5.09338 9.17841 5.20077 8.32841 5.4172 7.52841C4.15744 5.62841 4.41848 4.79091 4.41848 4.79091C5.76002 4.25341 6.75048 4.59091 6.99665 4.69091C7.67817 4.05341 8.5472 3.66591 9.61035 3.66591C13.3525 3.66591 14.1761 6.00341 14.4156 8.22841C14.7081 7.87841 15.3053 7.55341 16.2181 7.55341C17.5217 7.55341 18.5691 7.56591 18.8855 7.56591C19.1408 7.56591 19.4456 7.39091 19.3481 6.87841C18.0694 2.87757 14.4165 0.0150751 10.1184 0.0150753C4.73899 0.0150755 0.377319 4.49258 0.377319 10.0151Z" fill="white"/>
</svg>
