<svg width="26" height="24" viewBox="0 0 26 24" fill="none" xmlns="http://www.w3.org/2000/svg">
<g id="Courses">
<path id="Vector" d="M3.73572 15.1162L1.87112 14.7066C1.32463 15.8045 0.80603 17.0378 0.80603 18.4587C0.80603 19.8523 1.30364 21.0707 1.87112 22.2107L8.17908 20.8251V23.5577L10.3763 22.4637L12.5736 23.5577V20.8265L18.8323 22.2115C19.3746 21.1221 19.8978 19.8855 19.8978 18.4587C19.8978 18.2127 19.8796 17.9679 19.8489 17.7293H25.806V0.22522H3.73572V15.1162ZM2.70691 20.5333C2.51638 20.0317 2.27087 19.2346 2.27087 18.4587C2.27087 17.6826 2.51643 16.8854 2.70691 16.3839L8.17908 17.586V19.3313L2.70691 20.5333ZM11.1088 21.1975L10.3763 20.8329L9.64392 21.1975V17.7293H11.1088V21.1975ZM17.9973 20.5325L12.5736 19.3323V17.585L17.9973 16.3848C18.1878 16.8866 18.433 17.6831 18.433 18.4586C18.433 19.2343 18.1877 20.0309 17.9973 20.5325ZM24.3412 1.6839V16.2707H19.5098C19.2697 15.5392 19.0761 15.1939 18.8323 14.7058L11.7608 16.2707H8.99138L5.20056 15.4379V1.6839H24.3412Z" fill="white"/>
<path id="Vector_2" d="M9.64392 3.14246H19.8978V4.60113H9.64392V3.14246Z" fill="white"/>
<path id="Vector_3" d="M6.66541 8.97717H22.8763V10.4358H6.66541V8.97717Z" fill="white"/>
<path id="Vector_4" d="M9.64392 11.8945H19.8978V13.3532H9.64392V11.8945Z" fill="white"/>
<path id="Vector_5" d="M11.1088 6.05981H12.5736V7.51849H11.1088V6.05981Z" fill="white"/>
<path id="Vector_6" d="M14.0385 6.05981H15.5033V7.51849H14.0385V6.05981Z" fill="white"/>
<path id="Vector_7" d="M16.9681 6.05981H18.433V7.51849H16.9681V6.05981Z" fill="white"/>
</g>
</svg>
