<svg width="26" height="27" viewBox="0 0 26 27" fill="none" xmlns="http://www.w3.org/2000/svg">
<g id="seo 1" clip-path="url(#clip0_11_10)">
<g id="Group">
<g id="Group_2">
<path id="Vector" d="M23.4696 4.76538H12.2196V5.60717H23.4696V4.76538Z" fill="white"/>
</g>
</g>
<g id="Group_3">
<g id="Group_4">
<path id="Vector_2" d="M19.3029 6.44897H12.2196V7.29077H19.3029V6.44897Z" fill="white"/>
</g>
</g>
<g id="Group_5">
<g id="Group_6">
<path id="Vector_3" d="M19.3029 8.13257H12.2196V8.97436H19.3029V8.13257Z" fill="white"/>
</g>
</g>
<g id="Group_7">
<g id="Group_8">
<path id="Vector_4" d="M23.4696 3.08179H15.5529V3.92358H23.4696V3.08179Z" fill="white"/>
</g>
</g>
<g id="Group_9">
<g id="Group_10">
<path id="Vector_5" d="M14.7196 3.08179H13.8863V3.92358H14.7196V3.08179Z" fill="white"/>
</g>
</g>
<g id="Group_11">
<g id="Group_12">
<path id="Vector_6" d="M13.8862 17.8131H13.0529V18.6549H13.8862V17.8131Z" fill="white"/>
</g>
</g>
<g id="Group_13">
<g id="Group_14">
<path id="Vector_7" d="M7.93085 3.80022L7.34168 3.20508L6.50834 4.04687C6.34569 4.21123 6.34569 4.47766 6.50834 4.64202L7.34168 5.48381L7.93085 4.88866L7.39209 4.34444L7.93085 3.80022Z" fill="white"/>
</g>
</g>
<g id="Group_15">
<g id="Group_16">
<path id="Vector_8" d="M11.2642 4.04687L10.4308 3.20508L9.84167 3.80022L10.3804 4.34444L9.84167 4.88866L10.4308 5.48381L11.2642 4.64202C11.4268 4.47766 11.4268 4.21123 11.2642 4.04687Z" fill="white"/>
</g>
</g>
<g id="Group_17">
<g id="Group_18">
<path id="Vector_9" d="M8.90796 2.94818L8.07385 5.47351L8.86396 5.7398L9.69807 3.21447L8.90796 2.94818Z" fill="white"/>
</g>
</g>
<g id="Group_19">
<g id="Group_20">
<path id="Vector_10" d="M22.6363 14.025V10.6578H21.803V14.025H20.9696V9.81604H20.1363V14.025H19.303V11.9205H18.4696V14.025H17.6363V11.4996H16.803V14.025H15.9696V12.3414H15.1363V14.025H14.303V14.8668H23.4696V14.025H22.6363Z" fill="white"/>
</g>
</g>
<g id="Group_21">
<g id="Group_22">
<path id="Vector_11" d="M23.053 0.977295H3.88629C2.50614 0.978663 1.38765 2.10851 1.38629 3.50267V11.7632V11.767V16.5505V17.8131C1.38765 19.2073 2.50614 20.3372 3.88629 20.3385H9.04546L7.37879 23.7057H5.13629C4.44593 23.7057 3.88629 24.271 3.88629 24.9684C3.88629 25.6658 4.44593 26.2311 5.13629 26.2311H21.803C22.4933 26.2311 23.053 25.6658 23.053 24.9684C23.053 24.271 22.4933 23.7057 21.803 23.7057H19.5605L17.8938 20.3385H23.053C24.4331 20.3372 25.5516 19.2073 25.553 17.8131V3.50267C25.5516 2.10851 24.4331 0.978663 23.053 0.977295ZM2.21962 6.8993L3.16671 8.03825C3.24587 8.13353 3.36275 8.18851 3.48587 8.18851H4.76129C4.88442 8.18851 5.00129 8.13353 5.08046 8.03825L6.02796 6.8993L6.96296 7.20614L7.06629 8.68896C7.07483 8.81296 7.13723 8.92681 7.23671 9L8.26879 9.75761C8.36864 9.83043 8.49509 9.85521 8.61462 9.82537L10.045 9.46635L10.6234 10.2698L9.84379 11.5325C9.77921 11.6384 9.76426 11.7677 9.80296 11.8857L10.1975 13.1109C10.2355 13.2291 10.3232 13.3243 10.4371 13.371L11.803 13.9304V14.9237L10.4363 15.4831C10.3221 15.5296 10.2343 15.6251 10.1967 15.7436L10.0717 16.1296H7.67129C8.60504 14.1547 7.77712 11.7891 5.82212 10.8459C4.67384 10.2919 3.33082 10.3349 2.21962 10.9614V6.8993ZM2.21962 11.9627C3.56733 10.9006 5.51223 11.1433 6.56358 12.5047C7.37535 13.5558 7.43801 15.0112 6.71962 16.1296H2.21962V11.9627ZM21.803 24.5475C22.0331 24.5475 22.2196 24.7359 22.2196 24.9684C22.2196 25.2008 22.0331 25.3893 21.803 25.3893H5.13629C4.90619 25.3893 4.71962 25.2008 4.71962 24.9684C4.71962 24.7359 4.90619 24.5475 5.13629 24.5475H21.803ZM18.6288 23.7057H8.31046L9.97712 20.3385H16.9621L18.6288 23.7057ZM24.7196 17.8131C24.7196 18.743 23.9734 19.4967 23.053 19.4967H3.88629C2.96582 19.4967 2.21962 18.743 2.21962 17.8131V16.9714H6.93712H6.94088H24.7196V17.8131ZM24.7196 16.1296H11.0759L12.3763 15.5971C12.5334 15.5327 12.6362 15.3786 12.6363 15.2074V13.6463C12.6363 13.4749 12.5335 13.3205 12.3763 13.2561L10.928 12.6643L10.6538 11.812L11.4796 10.4736C11.5692 10.3281 11.5626 10.1424 11.463 10.0038L10.5546 8.74115C10.4549 8.60241 10.2819 8.53864 10.1171 8.57994L8.60213 8.95875L7.88629 8.43347L7.77671 6.86353C7.76478 6.69238 7.65119 6.54565 7.48962 6.49272L6.02087 6.01037C5.85926 5.95839 5.68259 6.00969 5.57296 6.14043L4.57004 7.3463H3.68129L2.67796 6.14043C2.56827 6.00953 2.39134 5.95818 2.22962 6.01037L2.21962 6.01416V3.50267C2.21962 2.57286 2.96582 1.81909 3.88629 1.81909H23.053C23.9734 1.81909 24.7196 2.57286 24.7196 3.50267V16.1296Z" fill="white"/>
</g>
</g>
</g>
<defs>
<clipPath id="clip0_11_10">
<rect width="25" height="25.2538" fill="white" transform="translate(0.969604 0.977295)"/>
</clipPath>
</defs>
</svg>
