<svg width="26" height="24" viewBox="0 0 26 24" fill="none" xmlns="http://www.w3.org/2000/svg">
<g id="web development">
<g id="Group">
<g id="Group_2">
<path id="Vector" d="M0.37738 0.0153809V20.5358H8.4014V22.0031H6.9348V23.468H18.8199V22.0031H17.3533V20.5358H25.3774V0.0153809H0.37738ZM15.8884 22.0031H9.86635V20.5358H15.8884V22.0031H15.8884ZM23.9125 19.0709H1.84227V16.1376H23.9124V19.0709H23.9125ZM23.9125 14.6727H1.84227V1.48032H23.9124V14.6727H23.9125Z" fill="white"/>
</g>
</g>
<g id="Group_3">
<g id="Group_4">
<path id="Vector_2" d="M10.3355 5.42878L9.2997 4.39294L5.61615 8.07649L9.2997 11.76L10.3355 10.7241L7.68783 8.07649L10.3355 5.42878Z" fill="white"/>
</g>
</g>
<g id="Group_5">
<g id="Group_6">
<path id="Vector_3" d="M16.4551 4.39294L15.4193 5.42878L18.067 8.07649L15.4193 10.7241L16.4551 11.76L20.1386 8.07649L16.4551 4.39294Z" fill="white"/>
</g>
</g>
<g id="Group_7">
<g id="Group_8">
<path id="Vector_4" d="M13.0093 3.65937L11.3087 12.2084L12.7455 12.4942L14.4461 3.94518L13.0093 3.65937Z" fill="white"/>
</g>
</g>
</g>
</svg>
